<?xml version="1.0" encoding="utf-8"?>
<!-- Generator: Adobe Illustrator 26.5.0, SVG Export Plug-In . SVG Version: 6.00 Build 0)  -->
<svg version="1.1" id="Calque_1" xmlns="http://www.w3.org/2000/svg" xmlns:xlink="http://www.w3.org/1999/xlink" x="0px" y="0px"
	 viewBox="0 0 460.5 128.5" style="enable-background:new 0 0 460.5 128.5;" xml:space="preserve">
<style type="text/css">
	.st0{fill:#386641;}
</style>
<g>
	<path class="st0" d="M113.2,84.4c-1.7,3.2-4.4,5.8-8,7.8s-8.2,3-13.8,3H80.1v26.4H66.6V52.8h24.8c5.2,0,9.6,0.9,13.3,2.8
		c3.7,1.8,6.4,4.4,8.2,7.6s2.8,6.9,2.8,10.9C115.7,77.8,114.9,81.2,113.2,84.4L113.2,84.4z M99.1,81.4c1.8-1.7,2.7-4.2,2.7-7.3
		c0-6.7-3.7-10.1-11-10.1H80.1v20h10.7C94.6,84,97.3,83.2,99.1,81.4z"/>
	<path class="st0" d="M143.3,117.8c-5.3-3-9.5-7.2-12.6-12.6c-3.1-5.4-4.6-11.4-4.6-18.2s1.5-12.7,4.6-18.1
		c3.1-5.4,7.3-9.6,12.6-12.6s11.1-4.5,17.4-4.5c6.3,0,12.2,1.5,17.4,4.5s9.4,7.2,12.5,12.6s4.6,11.4,4.6,18.1s-1.5,12.8-4.6,18.2
		s-7.2,9.6-12.5,12.6s-11.1,4.5-17.4,4.5S148.6,120.8,143.3,117.8L143.3,117.8z M171.4,107.2c3.1-1.9,5.5-4.6,7.2-8
		s2.6-7.5,2.6-12.1s-0.9-8.6-2.6-12.1s-4.1-6.1-7.2-7.9s-6.7-2.8-10.7-2.8s-7.6,0.9-10.8,2.8s-5.6,4.5-7.3,7.9s-2.6,7.5-2.6,12.1
		s0.9,8.6,2.6,12.1c1.7,3.5,4.2,6.2,7.3,8s6.7,2.8,10.8,2.8C164.7,110,168.3,109,171.4,107.2z"/>
	<path class="st0" d="M257.8,84.4c-1.7,3.2-4.4,5.8-8,7.8s-8.2,3-13.8,3h-11.3v26.4h-13.5V52.8H236c5.2,0,9.6,0.9,13.3,2.8
		s6.4,4.4,8.2,7.6s2.8,6.9,2.8,10.9C260.4,77.8,259.5,81.2,257.8,84.4L257.8,84.4z M243.8,81.4c1.8-1.7,2.7-4.2,2.7-7.3
		c0-6.7-3.7-10.1-11-10.1h-10.7v20h10.7C239.2,84,242,83.2,243.8,81.4z"/>
	<path class="st0" d="M290.2,52.8v68.8h-13.5V52.8H290.2z"/>
	<path class="st0" d="M367.9,121.6h-13.5l-30.6-47.2v47.2h-13.5V52.7h13.5l30.6,47.3V52.7h13.5V121.6z"/>
	<path class="st0" d="M434.9,73.5c-1.5-2.9-3.7-5.1-6.4-6.6s-5.9-2.3-9.5-2.3c-4,0-7.5,0.9-10.6,2.8s-5.5,4.5-7.2,7.9
		s-2.6,7.4-2.6,11.8s0.9,8.6,2.6,12s4.2,6.1,7.4,7.9s6.8,2.8,11,2.8c5.2,0,9.4-1.4,12.6-4.2c3.3-2.8,5.4-6.7,6.5-11.7h-23.2V83.3
		H452v12c-0.9,4.8-2.8,9.2-5.8,13.3s-6.8,7.3-11.4,9.8c-4.7,2.5-9.9,3.7-15.7,3.7c-6.5,0-12.4-1.5-17.6-4.5s-9.4-7.1-12.4-12.5
		c-3-5.3-4.5-11.4-4.5-18.1s1.5-12.8,4.5-18.2s7.1-9.5,12.4-12.5c5.2-3,11.1-4.5,17.5-4.5c7.6,0,14.2,1.9,19.8,5.7
		s9.5,9.1,11.6,15.9L434.9,73.5L434.9,73.5z"/>
</g>
<g>
	<path class="st0" d="M19,113.6c-0.6,0.8-0.9,1.6-0.9,2.4c-0.1,0.9,0.1,1.8,0.6,2.7s1.1,1.6,1.9,2.1s1.7,0.8,2.7,0.8s2-0.2,3-0.8
		c1-0.5,1.8-1.2,2.3-2s0.8-1.7,0.9-2.6s-0.2-1.9-0.6-2.7c-0.7-1.2-1.6-2.1-2.7-2.5c-1.2-0.4-2.4-0.4-3.8,0.2l2.7,5.1l-1.4,0.7
		l-3.6-6.9l1.3-0.7c1.1-0.4,2.2-0.6,3.4-0.5s2.2,0.5,3.2,1.1c1,0.7,1.8,1.6,2.4,2.7c0.6,1.2,0.9,2.4,0.8,3.7s-0.4,2.4-1.1,3.5
		s-1.7,2-2.9,2.6c-1.2,0.6-2.5,0.9-3.8,0.9s-2.5-0.4-3.6-1.1c-1.1-0.7-1.9-1.6-2.5-2.8c-0.7-1.4-1-2.8-0.9-4.1s0.7-2.7,1.7-3.8
		L19,113.6L19,113.6z"/>
	<path class="st0" d="M24.3,96.4l-4.9,4.8l0.6,2.2l5.7-1.4l0.5,1.8l-14,3.6l-1.2-4.5c-0.3-1.1-0.3-2-0.1-2.8s0.5-1.5,1.1-2
		c0.5-0.5,1.2-0.9,2-1.1c1-0.2,1.9-0.2,2.8,0.2s1.6,1.1,2.1,2.1l5-5L24.3,96.4L24.3,96.4z M18.5,103.8l-0.7-2.7
		c-0.2-1-0.7-1.7-1.3-2.1c-0.6-0.4-1.3-0.5-2.2-0.2c-0.8,0.2-1.4,0.6-1.8,1.2c-0.3,0.6-0.4,1.4-0.1,2.4l0.7,2.7L18.5,103.8
		L18.5,103.8z"/>
	<path class="st0" d="M10.4,89.9l4.8-0.3l-0.3-5.3l1.6-0.1l0.3,5.3l5-0.3l-0.3-5.9l1.6-0.1l0.5,7.8L9.1,91.9l-0.5-7.8l1.6-0.1
		L10.4,89.9L10.4,89.9z"/>
	<path class="st0" d="M10.4,76.6l4.8,0.5l0.6-5.2l1.6,0.2l-0.6,5.2l4.9,0.6l0.7-5.9l1.6,0.2l-0.9,7.7L8.7,78.3l0.9-7.7l1.6,0.2
		L10.4,76.6L10.4,76.6z"/>
	<path class="st0" d="M28,58.2L27.4,60l-13.3,3.6L25,67.2L24.4,69l-13.8-4.5l0.6-1.8l13.3-3.6l-10.9-3.6l0.6-1.8L28,58.2L28,58.2z"
		/>
	<path class="st0" d="M37.1,43.4l-6.8-0.7L29,44.5l4.8,3.5l-1.1,1.5L21,40.9l2.8-3.8c0.7-0.9,1.3-1.5,2.1-1.9s1.5-0.5,2.2-0.5
		s1.4,0.3,2.1,0.8c0.8,0.6,1.3,1.3,1.6,2.2c0.3,0.9,0.2,1.9-0.3,3l7,0.7L37.1,43.4L37.1,43.4z M27.7,43.7l1.6-2.2
		c0.6-0.8,0.9-1.6,0.8-2.3s-0.5-1.3-1.2-1.8s-1.4-0.7-2.1-0.6s-1.3,0.6-1.9,1.4l-1.6,2.2L27.7,43.7L27.7,43.7z"/>
	<path class="st0" d="M33.2,28.6l3.3,3.5l3.9-3.6l1.1,1.1l-3.9,3.6l3.4,3.6l4.3-4l1.1,1.1l-5.7,5.3l-9.9-10.6l5.7-5.3l1.1,1.1
		L33.2,28.6L33.2,28.6z"/>
	<path class="st0" d="M50.4,30.6c-0.8,0.1-1.6,0-2.3-0.2c-0.7-0.3-1.2-0.8-1.7-1.4l1.7-1.1c0.4,0.5,1,0.9,1.6,1
		c0.7,0.1,1.4-0.1,2.2-0.6s1.2-1.1,1.4-1.7c0.2-0.7,0.1-1.3-0.3-1.9c-0.3-0.5-0.7-0.8-1.1-0.9s-0.9-0.2-1.4-0.1s-1.1,0.3-1.9,0.5
		c-0.9,0.3-1.7,0.5-2.3,0.6s-1.2,0-1.9-0.2c-0.6-0.2-1.2-0.7-1.7-1.5c-0.4-0.7-0.6-1.4-0.6-2.1s0.2-1.4,0.7-2.1s1.1-1.3,1.8-1.8
		c1.1-0.7,2.3-1,3.4-0.9c1.1,0.1,2,0.6,2.7,1.5l-1.8,1.1c-0.4-0.4-0.9-0.7-1.5-0.8s-1.3,0.1-2.1,0.6c-0.7,0.4-1.1,0.9-1.3,1.6
		s-0.1,1.2,0.3,1.8c0.3,0.4,0.6,0.7,1.1,0.8s0.9,0.1,1.3,0.1c0.5-0.1,1.1-0.2,1.9-0.5c0.9-0.3,1.7-0.5,2.4-0.6s1.3,0,1.9,0.2
		c0.6,0.2,1.2,0.7,1.7,1.5c0.4,0.6,0.6,1.3,0.6,2s-0.2,1.4-0.6,2.2s-1,1.3-1.9,1.9C52,30.2,51.2,30.5,50.4,30.6L50.4,30.6z"/>
	<path class="st0" d="M62.6,8.8l0.6,1.4l-3.7,1.4l4.8,12l-1.8,0.7l-4.8-12L54,13.8l-0.6-1.4L62.6,8.8L62.6,8.8z"/>
	<path class="st0" d="M78.4,16.9L72.2,18l-0.6,3.4l-2,0.3l2.7-15.1l2.1-0.4L82,19.5l-2,0.3L78.4,16.9L78.4,16.9z M77.6,15.5
		l-3.8-6.8l-1.3,7.7L77.6,15.5L77.6,15.5z"/>
	<path class="st0" d="M87.2,5.1l-0.4,9.2c-0.1,1.3,0.2,2.3,0.8,2.9s1.5,1,2.6,1.1s2-0.2,2.6-0.8c0.7-0.6,1-1.5,1.1-2.8l0.4-9.2
		l1.9,0.1l-0.4,9.1c-0.1,1.2-0.4,2.2-0.9,3s-1.2,1.4-2.1,1.7S91,19.9,90,19.9c-1-0.1-1.9-0.3-2.7-0.7c-0.8-0.4-1.4-1.1-1.9-1.9
		s-0.6-1.9-0.6-3.1l0.4-9.1L87.2,5.1L87.2,5.1z"/>
	<path class="st0" d="M106.3,22.6l-1.8-6.6l-2.2-0.6l-1.5,5.7L99,20.6l3.8-14l4.5,1.2c1.1,0.3,1.9,0.7,2.5,1.3
		c0.6,0.6,1,1.2,1.2,1.9c0.2,0.7,0.2,1.5,0,2.2c-0.3,1-0.8,1.7-1.5,2.3c-0.8,0.6-1.7,0.8-2.9,0.8l1.9,6.8L106.3,22.6L106.3,22.6z
		 M102.7,13.9l2.7,0.7c1,0.3,1.8,0.2,2.4-0.1c0.6-0.4,1.1-0.9,1.3-1.8c0.2-0.8,0.1-1.5-0.2-2.1c-0.4-0.6-1.1-1-2.1-1.3l-2.7-0.7
		L102.7,13.9L102.7,13.9z"/>
	<path class="st0" d="M120.4,25.3l-5.6-2.9l-2.5,2.3l-1.8-0.9l11.3-10.4l1.9,1l-2,15.2l-1.8-0.9L120.4,25.3L120.4,25.3z M120.7,23.7
		l1-7.7l-5.7,5.3L120.7,23.7z"/>
	<path class="st0" d="M132.5,38.5l-1.4-1.2l1.7-13.7l-7.5,8.8l-1.4-1.2l9.4-11l1.4,1.2L133,35l7.4-8.8l1.4,1.2L132.5,38.5
		L132.5,38.5z"/>
	<path class="st0" d="M151.8,39.4l-1.2,0.9l-2.4-3.1L138,45.1l-1.2-1.5l10.2-7.9l-2.4-3.1l1.2-0.9L151.8,39.4z"/>
</g>
</svg>
